# xmcd CD database file
#
# Track frame offsets:
#	150
#	27077
#	43067
#	51450
#	60430
#	67190
#	76525
#	86022
#	110435
#	123357
#	140005
#	146615
#	158790
#	167570
#	186217
#	192395
#	204582
#
# Disc length: 2860 seconds
#
# Revision: 4
# Processed by: cddbd v1.4PL0 Copyright (c) Steve Scherf et al.
# Submitted via: CDex 1.40Release
#
DISCID=f10b2a11
DTITLE=Willie Nelson - Willie And Family Live - Disc 2
DYEAR=1978
DGENRE=Country
TTITLE0=Till I Gain Control Again
TTITLE1=Bloody Mary Morning
TTITLE2=I'm A Memory
TTITLE3=Mr. Record Man
TTITLE4=Hello Walls
TTITLE5=One Day At A Time
TTITLE6=Will The Circle Be Unbroken
TTITLE7=Amazing Grace
TTITLE8=Take This Job And Shove It (With Johnny Paycheck)
TTITLE9=Uncloudy Day
TTITLE10=The Only Daddy That'll Walk The Line
TTITLE11=A Song For You
TTITLE12=Roll In My Sweet Baby's Arms
TTITLE13=Georgia On My Mind
TTITLE14=I Gotta Get Drunk
TTITLE15=Whiskey River
TTITLE16=The Only Daddy That'll Walk The Line
EXTD=YEAR: 1978 ID3G: 2
EXTT0=
EXTT1=
EXTT2=
EXTT3=
EXTT4=
EXTT5=
EXTT6=
EXTT7=
EXTT8=with Johnny Paycheck
EXTT9=
EXTT10=
EXTT11=
EXTT12=
EXTT13=
EXTT14=
EXTT15=
EXTT16=
PLAYORDER=
